<mxfile host="app.diagrams.net" agent="Mozilla/5.0 (Windows NT 10.0; Win64; x64) AppleWebKit/537.36 (KHTML, like Gecko) Chrome/132.0.0.0 YaBrowser/25.2.0.0 Safari/537.36" version="26.1.0">
  <diagram name="Страница — 1" id="na8oBR_vZthNXtE7sIUF">
    <mxGraphModel dx="1105" dy="597" grid="1" gridSize="10" guides="1" tooltips="1" connect="1" arrows="1" fold="1" page="1" pageScale="1" pageWidth="827" pageHeight="1169" math="0" shadow="0">
      <root>
        <mxCell id="0" />
        <mxCell id="1" parent="0" />
        <mxCell id="t9suQ3uua5jyY2-EuL71-1" value="0, 0" style="ellipse;whiteSpace=wrap;html=1;" vertex="1" parent="1">
          <mxGeometry x="340" y="90" width="60" height="30" as="geometry" />
        </mxCell>
        <mxCell id="t9suQ3uua5jyY2-EuL71-2" value="4, 0" style="ellipse;whiteSpace=wrap;html=1;" vertex="1" parent="1">
          <mxGeometry x="274" y="160" width="60" height="30" as="geometry" />
        </mxCell>
        <mxCell id="t9suQ3uua5jyY2-EuL71-3" value="0,3" style="ellipse;whiteSpace=wrap;html=1;" vertex="1" parent="1">
          <mxGeometry x="409.93" y="160" width="60" height="30" as="geometry" />
        </mxCell>
        <mxCell id="t9suQ3uua5jyY2-EuL71-5" value="4, 3" style="ellipse;whiteSpace=wrap;html=1;" vertex="1" parent="1">
          <mxGeometry x="340" y="230" width="60" height="30" as="geometry" />
        </mxCell>
        <mxCell id="t9suQ3uua5jyY2-EuL71-6" value="1" style="endArrow=classic;html=1;rounded=0;" edge="1" parent="1" source="t9suQ3uua5jyY2-EuL71-1" target="t9suQ3uua5jyY2-EuL71-2">
          <mxGeometry width="50" height="50" relative="1" as="geometry">
            <mxPoint x="320" y="270" as="sourcePoint" />
            <mxPoint x="370" y="220" as="targetPoint" />
          </mxGeometry>
        </mxCell>
        <mxCell id="t9suQ3uua5jyY2-EuL71-7" value="2" style="endArrow=classic;html=1;rounded=0;" edge="1" parent="1" source="t9suQ3uua5jyY2-EuL71-1" target="t9suQ3uua5jyY2-EuL71-3">
          <mxGeometry width="50" height="50" relative="1" as="geometry">
            <mxPoint x="390" y="170" as="sourcePoint" />
            <mxPoint x="440" y="120" as="targetPoint" />
          </mxGeometry>
        </mxCell>
        <mxCell id="t9suQ3uua5jyY2-EuL71-11" value="2" style="endArrow=classic;html=1;rounded=0;" edge="1" parent="1" source="t9suQ3uua5jyY2-EuL71-2" target="t9suQ3uua5jyY2-EuL71-5">
          <mxGeometry width="50" height="50" relative="1" as="geometry">
            <mxPoint x="314" y="250" as="sourcePoint" />
            <mxPoint x="364" y="200" as="targetPoint" />
          </mxGeometry>
        </mxCell>
        <mxCell id="t9suQ3uua5jyY2-EuL71-13" value="3" style="endArrow=classic;html=1;rounded=0;exitX=0.957;exitY=0.231;exitDx=0;exitDy=0;exitPerimeter=0;" edge="1" parent="1" source="t9suQ3uua5jyY2-EuL71-2">
          <mxGeometry width="50" height="50" relative="1" as="geometry">
            <mxPoint x="339.99718634771926" y="161.72031413745185" as="sourcePoint" />
            <mxPoint x="369.9676341984737" y="119.9992909160299" as="targetPoint" />
          </mxGeometry>
        </mxCell>
        <mxCell id="t9suQ3uua5jyY2-EuL71-15" value="1, 3" style="ellipse;whiteSpace=wrap;html=1;" vertex="1" parent="1">
          <mxGeometry x="229" y="230" width="60" height="30" as="geometry" />
        </mxCell>
        <mxCell id="t9suQ3uua5jyY2-EuL71-16" value="6" style="endArrow=classic;html=1;rounded=0;" edge="1" parent="1" source="t9suQ3uua5jyY2-EuL71-2" target="t9suQ3uua5jyY2-EuL71-15">
          <mxGeometry width="50" height="50" relative="1" as="geometry">
            <mxPoint x="314" y="250" as="sourcePoint" />
            <mxPoint x="364" y="200" as="targetPoint" />
          </mxGeometry>
        </mxCell>
        <mxCell id="t9suQ3uua5jyY2-EuL71-17" value="1" style="endArrow=classic;html=1;rounded=0;" edge="1" parent="1" target="t9suQ3uua5jyY2-EuL71-5">
          <mxGeometry width="50" height="50" relative="1" as="geometry">
            <mxPoint x="413.9728136522706" y="189.14968586256236" as="sourcePoint" />
            <mxPoint x="384.0023658015261" y="230.8707090839705" as="targetPoint" />
          </mxGeometry>
        </mxCell>
        <mxCell id="t9suQ3uua5jyY2-EuL71-18" value="4" style="endArrow=classic;html=1;rounded=0;exitX=0.062;exitY=0.249;exitDx=0;exitDy=0;exitPerimeter=0;" edge="1" parent="1" source="t9suQ3uua5jyY2-EuL71-3">
          <mxGeometry width="50" height="50" relative="1" as="geometry">
            <mxPoint x="400.00281365227073" y="161.72031413743707" as="sourcePoint" />
            <mxPoint x="370.03236580152605" y="119.99929091602928" as="targetPoint" />
          </mxGeometry>
        </mxCell>
        <mxCell id="t9suQ3uua5jyY2-EuL71-19" value="3, 0" style="ellipse;whiteSpace=wrap;html=1;" vertex="1" parent="1">
          <mxGeometry x="459.93" y="230" width="60" height="30" as="geometry" />
        </mxCell>
        <mxCell id="t9suQ3uua5jyY2-EuL71-20" value="8" style="endArrow=classic;html=1;rounded=0;" edge="1" parent="1" source="t9suQ3uua5jyY2-EuL71-3" target="t9suQ3uua5jyY2-EuL71-19">
          <mxGeometry width="50" height="50" relative="1" as="geometry">
            <mxPoint x="349.93" y="280" as="sourcePoint" />
            <mxPoint x="399.93" y="230" as="targetPoint" />
          </mxGeometry>
        </mxCell>
        <mxCell id="t9suQ3uua5jyY2-EuL71-22" value="1" style="endArrow=classic;html=1;rounded=0;" edge="1" parent="1" source="t9suQ3uua5jyY2-EuL71-15" target="t9suQ3uua5jyY2-EuL71-5">
          <mxGeometry width="50" height="50" relative="1" as="geometry">
            <mxPoint x="314" y="280" as="sourcePoint" />
            <mxPoint x="364" y="230" as="targetPoint" />
          </mxGeometry>
        </mxCell>
        <mxCell id="t9suQ3uua5jyY2-EuL71-24" value="1, 0" style="ellipse;whiteSpace=wrap;html=1;" vertex="1" parent="1">
          <mxGeometry x="180" y="300" width="60" height="30" as="geometry" />
        </mxCell>
        <mxCell id="t9suQ3uua5jyY2-EuL71-25" value="4" style="endArrow=classic;html=1;rounded=0;" edge="1" parent="1" source="t9suQ3uua5jyY2-EuL71-15" target="t9suQ3uua5jyY2-EuL71-24">
          <mxGeometry width="50" height="50" relative="1" as="geometry">
            <mxPoint x="330" y="280" as="sourcePoint" />
            <mxPoint x="380" y="230" as="targetPoint" />
          </mxGeometry>
        </mxCell>
        <mxCell id="t9suQ3uua5jyY2-EuL71-27" value="5" style="endArrow=classic;html=1;rounded=0;exitX=0.402;exitY=0.031;exitDx=0;exitDy=0;exitPerimeter=0;entryX=0;entryY=1;entryDx=0;entryDy=0;" edge="1" parent="1" source="t9suQ3uua5jyY2-EuL71-15" target="t9suQ3uua5jyY2-EuL71-2">
          <mxGeometry width="50" height="50" relative="1" as="geometry">
            <mxPoint x="330" y="280" as="sourcePoint" />
            <mxPoint x="380" y="230" as="targetPoint" />
          </mxGeometry>
        </mxCell>
        <mxCell id="t9suQ3uua5jyY2-EuL71-28" value="8" style="endArrow=classic;html=1;rounded=0;exitX=1;exitY=0;exitDx=0;exitDy=0;entryX=0.5;entryY=1;entryDx=0;entryDy=0;" edge="1" parent="1" source="t9suQ3uua5jyY2-EuL71-15" target="t9suQ3uua5jyY2-EuL71-2">
          <mxGeometry width="50" height="50" relative="1" as="geometry">
            <mxPoint x="330" y="280" as="sourcePoint" />
            <mxPoint x="380" y="230" as="targetPoint" />
          </mxGeometry>
        </mxCell>
        <mxCell id="t9suQ3uua5jyY2-EuL71-29" value="3" style="endArrow=classic;html=1;rounded=0;exitX=1;exitY=0;exitDx=0;exitDy=0;" edge="1" parent="1" source="t9suQ3uua5jyY2-EuL71-5" target="t9suQ3uua5jyY2-EuL71-3">
          <mxGeometry width="50" height="50" relative="1" as="geometry">
            <mxPoint x="330" y="280" as="sourcePoint" />
            <mxPoint x="380" y="230" as="targetPoint" />
          </mxGeometry>
        </mxCell>
        <mxCell id="t9suQ3uua5jyY2-EuL71-30" value="4" style="endArrow=classic;html=1;rounded=0;exitX=0.5;exitY=0;exitDx=0;exitDy=0;entryX=1;entryY=1;entryDx=0;entryDy=0;" edge="1" parent="1" source="t9suQ3uua5jyY2-EuL71-5" target="t9suQ3uua5jyY2-EuL71-2">
          <mxGeometry width="50" height="50" relative="1" as="geometry">
            <mxPoint x="330" y="280" as="sourcePoint" />
            <mxPoint x="380" y="230" as="targetPoint" />
          </mxGeometry>
        </mxCell>
        <mxCell id="t9suQ3uua5jyY2-EuL71-38" value="" style="endArrow=classic;html=1;rounded=0;entryX=0.035;entryY=0.728;entryDx=0;entryDy=0;entryPerimeter=0;" edge="1" parent="1" target="t9suQ3uua5jyY2-EuL71-3">
          <mxGeometry relative="1" as="geometry">
            <mxPoint x="290" y="240" as="sourcePoint" />
            <mxPoint x="410" y="180" as="targetPoint" />
          </mxGeometry>
        </mxCell>
        <mxCell id="t9suQ3uua5jyY2-EuL71-40" value="3" style="edgeLabel;resizable=0;html=1;;align=left;verticalAlign=bottom;" connectable="0" vertex="1" parent="t9suQ3uua5jyY2-EuL71-38">
          <mxGeometry x="-1" relative="1" as="geometry" />
        </mxCell>
        <mxCell id="t9suQ3uua5jyY2-EuL71-43" value="" style="endArrow=classic;html=1;rounded=0;entryX=0.976;entryY=0.691;entryDx=0;entryDy=0;entryPerimeter=0;" edge="1" parent="1" source="t9suQ3uua5jyY2-EuL71-19" target="t9suQ3uua5jyY2-EuL71-2">
          <mxGeometry width="50" height="50" relative="1" as="geometry">
            <mxPoint x="330" y="280" as="sourcePoint" />
            <mxPoint x="380" y="230" as="targetPoint" />
          </mxGeometry>
        </mxCell>
        <mxCell id="t9suQ3uua5jyY2-EuL71-44" value="1" style="text;html=1;align=center;verticalAlign=middle;resizable=0;points=[];autosize=1;strokeColor=none;fillColor=none;" vertex="1" parent="1">
          <mxGeometry x="429.93" y="210" width="30" height="30" as="geometry" />
        </mxCell>
        <mxCell id="t9suQ3uua5jyY2-EuL71-45" value="3, 3" style="ellipse;whiteSpace=wrap;html=1;" vertex="1" parent="1">
          <mxGeometry x="510" y="300" width="60" height="30" as="geometry" />
        </mxCell>
        <mxCell id="t9suQ3uua5jyY2-EuL71-46" value="2" style="endArrow=classic;html=1;rounded=0;" edge="1" parent="1" source="t9suQ3uua5jyY2-EuL71-19" target="t9suQ3uua5jyY2-EuL71-45">
          <mxGeometry width="50" height="50" relative="1" as="geometry">
            <mxPoint x="330" y="280" as="sourcePoint" />
            <mxPoint x="380" y="230" as="targetPoint" />
          </mxGeometry>
        </mxCell>
        <mxCell id="t9suQ3uua5jyY2-EuL71-48" value="3" style="curved=1;endArrow=classic;html=1;rounded=0;" edge="1" parent="1" source="t9suQ3uua5jyY2-EuL71-45" target="t9suQ3uua5jyY2-EuL71-3">
          <mxGeometry x="-0.15" y="18" width="50" height="50" relative="1" as="geometry">
            <mxPoint x="570" y="210" as="sourcePoint" />
            <mxPoint x="620" y="160" as="targetPoint" />
            <Array as="points">
              <mxPoint x="550" y="200" />
            </Array>
            <mxPoint as="offset" />
          </mxGeometry>
        </mxCell>
        <mxCell id="t9suQ3uua5jyY2-EuL71-49" value="4" style="endArrow=classic;html=1;rounded=0;exitX=0.5;exitY=0;exitDx=0;exitDy=0;entryX=1;entryY=1;entryDx=0;entryDy=0;" edge="1" parent="1" source="t9suQ3uua5jyY2-EuL71-45" target="t9suQ3uua5jyY2-EuL71-19">
          <mxGeometry width="50" height="50" relative="1" as="geometry">
            <mxPoint x="330" y="240" as="sourcePoint" />
            <mxPoint x="380" y="190" as="targetPoint" />
          </mxGeometry>
        </mxCell>
        <mxCell id="t9suQ3uua5jyY2-EuL71-50" value="6" style="endArrow=classic;html=1;rounded=0;" edge="1" parent="1">
          <mxGeometry x="-0.0065" width="50" height="50" relative="1" as="geometry">
            <mxPoint x="489.9028136522706" y="230.0003141374374" as="sourcePoint" />
            <mxPoint x="459.9323658015364" y="188.27929091604406" as="targetPoint" />
            <mxPoint as="offset" />
          </mxGeometry>
        </mxCell>
        <mxCell id="t9suQ3uua5jyY2-EuL71-51" value="7" style="endArrow=classic;html=1;rounded=0;" edge="1" parent="1">
          <mxGeometry x="-0.0065" width="50" height="50" relative="1" as="geometry">
            <mxPoint x="469.9328136522706" y="231.7203141374374" as="sourcePoint" />
            <mxPoint x="439.9623658015364" y="189.99929091604406" as="targetPoint" />
            <mxPoint as="offset" />
          </mxGeometry>
        </mxCell>
        <mxCell id="t9suQ3uua5jyY2-EuL71-52" value="1" style="curved=1;endArrow=classic;html=1;rounded=0;" edge="1" parent="1" source="t9suQ3uua5jyY2-EuL71-24" target="t9suQ3uua5jyY2-EuL71-2">
          <mxGeometry x="0.1715" y="-15" width="50" height="50" relative="1" as="geometry">
            <mxPoint x="170" y="250" as="sourcePoint" />
            <mxPoint x="220" y="200" as="targetPoint" />
            <Array as="points">
              <mxPoint x="200" y="210" />
            </Array>
            <mxPoint as="offset" />
          </mxGeometry>
        </mxCell>
        <mxCell id="t9suQ3uua5jyY2-EuL71-54" value="2" style="endArrow=classic;html=1;rounded=0;entryX=0.5;entryY=1;entryDx=0;entryDy=0;exitX=1;exitY=0;exitDx=0;exitDy=0;" edge="1" parent="1" source="t9suQ3uua5jyY2-EuL71-24" target="t9suQ3uua5jyY2-EuL71-15">
          <mxGeometry width="50" height="50" relative="1" as="geometry">
            <mxPoint x="229" y="305" as="sourcePoint" />
            <mxPoint x="253" y="260" as="targetPoint" />
          </mxGeometry>
        </mxCell>
        <mxCell id="t9suQ3uua5jyY2-EuL71-55" value="3" style="curved=1;endArrow=classic;html=1;rounded=0;" edge="1" parent="1" source="t9suQ3uua5jyY2-EuL71-24" target="t9suQ3uua5jyY2-EuL71-1">
          <mxGeometry width="50" height="50" relative="1" as="geometry">
            <mxPoint x="170" y="210" as="sourcePoint" />
            <mxPoint x="220" y="160" as="targetPoint" />
            <Array as="points">
              <mxPoint x="190" y="240" />
              <mxPoint x="240" y="150" />
            </Array>
          </mxGeometry>
        </mxCell>
        <mxCell id="t9suQ3uua5jyY2-EuL71-56" value="0, 1" style="ellipse;whiteSpace=wrap;html=1;" vertex="1" parent="1">
          <mxGeometry x="140" y="370" width="60" height="30" as="geometry" />
        </mxCell>
        <mxCell id="t9suQ3uua5jyY2-EuL71-57" value="7" style="endArrow=classic;html=1;rounded=0;" edge="1" parent="1" source="t9suQ3uua5jyY2-EuL71-24" target="t9suQ3uua5jyY2-EuL71-56">
          <mxGeometry width="50" height="50" relative="1" as="geometry">
            <mxPoint x="330" y="300" as="sourcePoint" />
            <mxPoint x="380" y="250" as="targetPoint" />
          </mxGeometry>
        </mxCell>
        <mxCell id="t9suQ3uua5jyY2-EuL71-58" value="1" style="endArrow=classic;html=1;rounded=0;entryX=1;entryY=1;entryDx=0;entryDy=0;" edge="1" parent="1" source="t9suQ3uua5jyY2-EuL71-45" target="t9suQ3uua5jyY2-EuL71-5">
          <mxGeometry width="50" height="50" relative="1" as="geometry">
            <mxPoint x="430" y="330" as="sourcePoint" />
            <mxPoint x="480" y="280" as="targetPoint" />
          </mxGeometry>
        </mxCell>
        <mxCell id="t9suQ3uua5jyY2-EuL71-60" value="4, 2" style="ellipse;whiteSpace=wrap;html=1;" vertex="1" parent="1">
          <mxGeometry x="560.0000000000001" y="370" width="60" height="30" as="geometry" />
        </mxCell>
        <mxCell id="t9suQ3uua5jyY2-EuL71-61" value="5" style="endArrow=classic;html=1;rounded=0;" edge="1" parent="1" source="t9suQ3uua5jyY2-EuL71-45" target="t9suQ3uua5jyY2-EuL71-60">
          <mxGeometry width="50" height="50" relative="1" as="geometry">
            <mxPoint x="510" y="390" as="sourcePoint" />
            <mxPoint x="560" y="340" as="targetPoint" />
          </mxGeometry>
        </mxCell>
        <mxCell id="t9suQ3uua5jyY2-EuL71-63" value="4, 1" style="ellipse;whiteSpace=wrap;html=1;" vertex="1" parent="1">
          <mxGeometry x="100" y="440" width="60" height="30" as="geometry" />
        </mxCell>
        <mxCell id="t9suQ3uua5jyY2-EuL71-64" value="1" style="endArrow=classic;html=1;rounded=0;" edge="1" parent="1" source="t9suQ3uua5jyY2-EuL71-56" target="t9suQ3uua5jyY2-EuL71-63">
          <mxGeometry width="50" height="50" relative="1" as="geometry">
            <mxPoint x="210" y="460" as="sourcePoint" />
            <mxPoint x="260" y="410" as="targetPoint" />
          </mxGeometry>
        </mxCell>
        <mxCell id="t9suQ3uua5jyY2-EuL71-65" value="2" style="curved=1;endArrow=classic;html=1;rounded=0;exitX=0.23;exitY=0.072;exitDx=0;exitDy=0;exitPerimeter=0;" edge="1" parent="1" source="t9suQ3uua5jyY2-EuL71-56" target="t9suQ3uua5jyY2-EuL71-3">
          <mxGeometry width="50" height="50" relative="1" as="geometry">
            <mxPoint x="110" y="310" as="sourcePoint" />
            <mxPoint x="560" y="60" as="targetPoint" />
            <Array as="points">
              <mxPoint x="160" y="310" />
              <mxPoint x="210" y="100" />
              <mxPoint x="350" y="40" />
              <mxPoint x="460" y="100" />
            </Array>
          </mxGeometry>
        </mxCell>
        <mxCell id="t9suQ3uua5jyY2-EuL71-66" value="4" style="curved=1;endArrow=classic;html=1;rounded=0;" edge="1" parent="1" source="t9suQ3uua5jyY2-EuL71-56" target="t9suQ3uua5jyY2-EuL71-1">
          <mxGeometry x="-0.3106" y="-63" width="50" height="50" relative="1" as="geometry">
            <mxPoint x="140" y="180" as="sourcePoint" />
            <mxPoint x="190" y="130" as="targetPoint" />
            <Array as="points">
              <mxPoint x="70" y="105" />
            </Array>
            <mxPoint as="offset" />
          </mxGeometry>
        </mxCell>
        <mxCell id="t9suQ3uua5jyY2-EuL71-67" value="8" style="endArrow=classic;html=1;rounded=0;exitX=1;exitY=0;exitDx=0;exitDy=0;" edge="1" parent="1">
          <mxGeometry width="50" height="50" relative="1" as="geometry">
            <mxPoint x="190.00128537616288" y="369.99890714187393" as="sourcePoint" />
            <mxPoint x="210" y="330" as="targetPoint" />
          </mxGeometry>
        </mxCell>
        <mxCell id="t9suQ3uua5jyY2-EuL71-68" value="2" style="endArrow=classic;html=1;rounded=0;" edge="1" parent="1" source="t9suQ3uua5jyY2-EuL71-60" target="t9suQ3uua5jyY2-EuL71-5">
          <mxGeometry width="50" height="50" relative="1" as="geometry">
            <mxPoint x="360" y="360" as="sourcePoint" />
            <mxPoint x="410" y="310" as="targetPoint" />
          </mxGeometry>
        </mxCell>
        <mxCell id="t9suQ3uua5jyY2-EuL71-69" value="0, 2" style="ellipse;whiteSpace=wrap;html=1;" vertex="1" parent="1">
          <mxGeometry x="610.0000000000001" y="440" width="60" height="30" as="geometry" />
        </mxCell>
        <mxCell id="t9suQ3uua5jyY2-EuL71-70" value="3" style="endArrow=classic;html=1;rounded=0;" edge="1" parent="1" source="t9suQ3uua5jyY2-EuL71-60" target="t9suQ3uua5jyY2-EuL71-69">
          <mxGeometry width="50" height="50" relative="1" as="geometry">
            <mxPoint x="600" y="398" as="sourcePoint" />
            <mxPoint x="630" y="440" as="targetPoint" />
          </mxGeometry>
        </mxCell>
        <mxCell id="t9suQ3uua5jyY2-EuL71-71" value="4" style="curved=1;endArrow=classic;html=1;rounded=0;" edge="1" parent="1" source="t9suQ3uua5jyY2-EuL71-60" target="t9suQ3uua5jyY2-EuL71-2">
          <mxGeometry width="50" height="50" relative="1" as="geometry">
            <mxPoint x="640" y="320" as="sourcePoint" />
            <mxPoint x="690" y="270" as="targetPoint" />
            <Array as="points">
              <mxPoint x="560" y="190" />
              <mxPoint x="440" y="130" />
            </Array>
          </mxGeometry>
        </mxCell>
        <mxCell id="t9suQ3uua5jyY2-EuL71-72" value="6" style="endArrow=classic;html=1;rounded=0;" edge="1" parent="1">
          <mxGeometry width="50" height="50" relative="1" as="geometry">
            <mxPoint x="570" y="370" as="sourcePoint" />
            <mxPoint x="540" y="330" as="targetPoint" />
          </mxGeometry>
        </mxCell>
        <mxCell id="t9suQ3uua5jyY2-EuL71-73" value="2" style="endArrow=classic;html=1;rounded=0;" edge="1" parent="1" source="t9suQ3uua5jyY2-EuL71-63" target="t9suQ3uua5jyY2-EuL71-5">
          <mxGeometry width="50" height="50" relative="1" as="geometry">
            <mxPoint x="250" y="420" as="sourcePoint" />
            <mxPoint x="300" y="370" as="targetPoint" />
          </mxGeometry>
        </mxCell>
        <mxCell id="t9suQ3uua5jyY2-EuL71-74" value="3" style="endArrow=classic;html=1;rounded=0;exitX=0.5;exitY=0;exitDx=0;exitDy=0;entryX=0.211;entryY=1.029;entryDx=0;entryDy=0;entryPerimeter=0;" edge="1" parent="1" source="t9suQ3uua5jyY2-EuL71-63" target="t9suQ3uua5jyY2-EuL71-56">
          <mxGeometry width="50" height="50" relative="1" as="geometry">
            <mxPoint x="90" y="420" as="sourcePoint" />
            <mxPoint x="140" y="370" as="targetPoint" />
          </mxGeometry>
        </mxCell>
        <mxCell id="t9suQ3uua5jyY2-EuL71-75" value="4" style="curved=1;endArrow=classic;html=1;rounded=0;entryX=0;entryY=0.5;entryDx=0;entryDy=0;" edge="1" parent="1" source="t9suQ3uua5jyY2-EuL71-63" target="t9suQ3uua5jyY2-EuL71-2">
          <mxGeometry width="50" height="50" relative="1" as="geometry">
            <mxPoint x="60" y="310" as="sourcePoint" />
            <mxPoint x="110" y="260" as="targetPoint" />
            <Array as="points">
              <mxPoint x="130" y="310" />
              <mxPoint x="200" y="210" />
            </Array>
          </mxGeometry>
        </mxCell>
        <mxCell id="t9suQ3uua5jyY2-EuL71-76" value="2, 3" style="ellipse;whiteSpace=wrap;html=1;" vertex="1" parent="1">
          <mxGeometry x="240" y="510" width="60" height="30" as="geometry" />
        </mxCell>
        <mxCell id="t9suQ3uua5jyY2-EuL71-77" value="6" style="endArrow=classic;html=1;rounded=0;" edge="1" parent="1" source="t9suQ3uua5jyY2-EuL71-63" target="t9suQ3uua5jyY2-EuL71-76">
          <mxGeometry width="50" height="50" relative="1" as="geometry">
            <mxPoint x="60" y="540" as="sourcePoint" />
            <mxPoint x="110" y="490" as="targetPoint" />
          </mxGeometry>
        </mxCell>
        <mxCell id="t9suQ3uua5jyY2-EuL71-78" value="1" style="endArrow=classic;html=1;rounded=0;entryX=1;entryY=1;entryDx=0;entryDy=0;exitX=0.5;exitY=0;exitDx=0;exitDy=0;" edge="1" parent="1" source="t9suQ3uua5jyY2-EuL71-69" target="t9suQ3uua5jyY2-EuL71-60">
          <mxGeometry width="50" height="50" relative="1" as="geometry">
            <mxPoint x="660" y="410" as="sourcePoint" />
            <mxPoint x="640" y="400" as="targetPoint" />
          </mxGeometry>
        </mxCell>
        <mxCell id="t9suQ3uua5jyY2-EuL71-79" value="2" style="curved=1;endArrow=classic;html=1;rounded=0;exitX=0.682;exitY=0.056;exitDx=0;exitDy=0;exitPerimeter=0;entryX=0.954;entryY=0.36;entryDx=0;entryDy=0;entryPerimeter=0;" edge="1" parent="1" source="t9suQ3uua5jyY2-EuL71-69" target="t9suQ3uua5jyY2-EuL71-3">
          <mxGeometry width="50" height="50" relative="1" as="geometry">
            <mxPoint x="700" y="320" as="sourcePoint" />
            <mxPoint x="750" y="270" as="targetPoint" />
            <Array as="points">
              <mxPoint x="640" y="330" />
              <mxPoint x="550" y="190" />
            </Array>
          </mxGeometry>
        </mxCell>
        <mxCell id="t9suQ3uua5jyY2-EuL71-80" value="4" style="curved=1;endArrow=classic;html=1;rounded=0;exitX=0.833;exitY=0;exitDx=0;exitDy=0;exitPerimeter=0;entryX=1;entryY=0.5;entryDx=0;entryDy=0;" edge="1" parent="1" source="t9suQ3uua5jyY2-EuL71-69" target="t9suQ3uua5jyY2-EuL71-1">
          <mxGeometry width="50" height="50" relative="1" as="geometry">
            <mxPoint x="620" y="230" as="sourcePoint" />
            <mxPoint x="670" y="180" as="targetPoint" />
            <Array as="points">
              <mxPoint x="660" y="280" />
              <mxPoint x="530" y="140" />
            </Array>
          </mxGeometry>
        </mxCell>
        <mxCell id="t9suQ3uua5jyY2-EuL71-81" value="2, 0" style="ellipse;whiteSpace=wrap;html=1;" vertex="1" parent="1">
          <mxGeometry x="450.0000000000001" y="510" width="60" height="30" as="geometry" />
        </mxCell>
        <mxCell id="t9suQ3uua5jyY2-EuL71-82" value="8" style="endArrow=classic;html=1;rounded=0;" edge="1" parent="1" source="t9suQ3uua5jyY2-EuL71-69" target="t9suQ3uua5jyY2-EuL71-81">
          <mxGeometry width="50" height="50" relative="1" as="geometry">
            <mxPoint x="550" y="490" as="sourcePoint" />
            <mxPoint x="600" y="440" as="targetPoint" />
          </mxGeometry>
        </mxCell>
        <mxCell id="t9suQ3uua5jyY2-EuL71-83" value="1" style="endArrow=classic;html=1;rounded=0;" edge="1" parent="1" source="t9suQ3uua5jyY2-EuL71-76" target="t9suQ3uua5jyY2-EuL71-5">
          <mxGeometry width="50" height="50" relative="1" as="geometry">
            <mxPoint x="300" y="440" as="sourcePoint" />
            <mxPoint x="350" y="390" as="targetPoint" />
          </mxGeometry>
        </mxCell>
        <mxCell id="t9suQ3uua5jyY2-EuL71-84" value="3" style="endArrow=classic;html=1;rounded=0;entryX=0.43;entryY=1.04;entryDx=0;entryDy=0;entryPerimeter=0;exitX=1;exitY=0;exitDx=0;exitDy=0;" edge="1" parent="1" source="t9suQ3uua5jyY2-EuL71-76" target="t9suQ3uua5jyY2-EuL71-3">
          <mxGeometry width="50" height="50" relative="1" as="geometry">
            <mxPoint x="190" y="520" as="sourcePoint" />
            <mxPoint x="290" y="460" as="targetPoint" />
          </mxGeometry>
        </mxCell>
        <mxCell id="t9suQ3uua5jyY2-EuL71-85" value="4" style="endArrow=classic;html=1;rounded=0;entryX=0.066;entryY=0.739;entryDx=0;entryDy=0;entryPerimeter=0;exitX=0.945;exitY=0.739;exitDx=0;exitDy=0;exitPerimeter=0;" edge="1" parent="1" source="t9suQ3uua5jyY2-EuL71-76" target="t9suQ3uua5jyY2-EuL71-81">
          <mxGeometry width="50" height="50" relative="1" as="geometry">
            <mxPoint x="280" y="540" as="sourcePoint" />
            <mxPoint x="330" y="490" as="targetPoint" />
          </mxGeometry>
        </mxCell>
        <mxCell id="t9suQ3uua5jyY2-EuL71-86" value="5" style="endArrow=classic;html=1;rounded=0;exitX=0.017;exitY=0.333;exitDx=0;exitDy=0;exitPerimeter=0;entryX=0.685;entryY=1.049;entryDx=0;entryDy=0;entryPerimeter=0;" edge="1" parent="1" source="t9suQ3uua5jyY2-EuL71-76" target="t9suQ3uua5jyY2-EuL71-63">
          <mxGeometry width="50" height="50" relative="1" as="geometry">
            <mxPoint x="130" y="510" as="sourcePoint" />
            <mxPoint x="180" y="460" as="targetPoint" />
          </mxGeometry>
        </mxCell>
        <mxCell id="t9suQ3uua5jyY2-EuL71-87" value="1" style="endArrow=classic;html=1;rounded=0;exitX=0;exitY=0;exitDx=0;exitDy=0;entryX=0.617;entryY=1.077;entryDx=0;entryDy=0;entryPerimeter=0;" edge="1" parent="1" source="t9suQ3uua5jyY2-EuL71-81" target="t9suQ3uua5jyY2-EuL71-2">
          <mxGeometry width="50" height="50" relative="1" as="geometry">
            <mxPoint x="390" y="420" as="sourcePoint" />
            <mxPoint x="310" y="189" as="targetPoint" />
          </mxGeometry>
        </mxCell>
        <mxCell id="t9suQ3uua5jyY2-EuL71-88" value="2" style="endArrow=classic;html=1;rounded=0;exitX=0.038;exitY=0.261;exitDx=0;exitDy=0;exitPerimeter=0;" edge="1" parent="1" source="t9suQ3uua5jyY2-EuL71-81">
          <mxGeometry width="50" height="50" relative="1" as="geometry">
            <mxPoint x="350" y="510" as="sourcePoint" />
            <mxPoint x="298" y="518" as="targetPoint" />
          </mxGeometry>
        </mxCell>
        <mxCell id="t9suQ3uua5jyY2-EuL71-89" value="3" style="endArrow=classic;html=1;rounded=0;exitX=0.397;exitY=-0.052;exitDx=0;exitDy=0;exitPerimeter=0;entryX=0.5;entryY=1;entryDx=0;entryDy=0;" edge="1" parent="1" source="t9suQ3uua5jyY2-EuL71-81" target="t9suQ3uua5jyY2-EuL71-1">
          <mxGeometry width="50" height="50" relative="1" as="geometry">
            <mxPoint x="460" y="420" as="sourcePoint" />
            <mxPoint x="510" y="370" as="targetPoint" />
          </mxGeometry>
        </mxCell>
        <mxCell id="t9suQ3uua5jyY2-EuL71-90" value="" style="endArrow=classic;html=1;rounded=0;exitX=1;exitY=0.5;exitDx=0;exitDy=0;entryX=0.314;entryY=1.031;entryDx=0;entryDy=0;entryPerimeter=0;" edge="1" parent="1" source="t9suQ3uua5jyY2-EuL71-81" target="t9suQ3uua5jyY2-EuL71-69">
          <mxGeometry width="50" height="50" relative="1" as="geometry">
            <mxPoint x="580" y="550" as="sourcePoint" />
            <mxPoint x="630" y="500" as="targetPoint" />
          </mxGeometry>
        </mxCell>
      </root>
    </mxGraphModel>
  </diagram>
</mxfile>
